<svg width="437" height="437" viewBox="0 0 437 437" fill="none" xmlns="http://www.w3.org/2000/svg">
<g clip-path="url(#clip0)">
<path d="M243.199 0C215.483 0 192.936 22.5474 192.936 50.2628C192.936 77.9782 215.484 100.526 243.199 100.526C270.914 100.526 293.462 77.9782 293.462 50.2628C293.462 22.5474 270.913 0 243.199 0ZM243.199 66.4489C234.274 66.4489 227.013 59.188 227.013 50.2628C227.013 41.3376 234.274 34.0767 243.199 34.0767C252.124 34.0767 259.385 41.3376 259.385 50.2628C259.385 59.188 252.124 66.4489 243.199 66.4489Z" fill="url(#paint0_linear)"/>
<path d="M283.275 361.382L256.364 374.714L285.611 177.071C285.734 176.245 285.794 175.411 285.794 174.577C285.794 159.424 278.385 145.266 265.976 136.701C253.706 128.234 238.073 126.332 224.153 131.612C223.646 131.804 223.147 132.02 222.661 132.261L138.598 173.713L153.668 204.276L180.616 190.987L151.375 388.535C151.253 389.36 151.191 390.194 151.191 391.029C151.191 406.133 158.629 420.28 171.086 428.879C178.857 434.241 187.946 437.001 197.093 437.001C202.513 437.001 207.955 436.03 213.153 434.059C213.67 433.862 214.177 433.641 214.673 433.396L298.403 391.915L283.275 361.382ZM219.191 393.129L200.449 402.414C195.7 403.928 191.896 401.838 190.441 400.834C188.98 399.825 185.697 397.023 185.306 392.023L217.774 172.663L236.845 163.259C241.346 161.811 244.874 163.543 246.617 164.747C248.058 165.741 251.293 168.518 251.678 173.577L219.191 393.129Z" fill="url(#paint1_linear)"/>
</g>
<defs>
<linearGradient id="paint0_linear" x1="243.199" y1="0" x2="243.199" y2="100.526" gradientUnits="userSpaceOnUse">
<stop stop-color="#00BEFF"/>
<stop offset="1" stop-color="#8C30F5"/>
</linearGradient>
<linearGradient id="paint1_linear" x1="218.5" y1="128.669" x2="218.5" y2="437.001" gradientUnits="userSpaceOnUse">
<stop stop-color="#00BEFF"/>
<stop offset="1" stop-color="#8C30F5"/>
</linearGradient>
<clipPath id="clip0">
<rect width="437" height="437" fill="white"/>
</clipPath>
</defs>
</svg>
